<mxfile host="app.diagrams.net" modified="2023-05-18T21:12:29.113Z" agent="Mozilla/5.0 (Windows NT 10.0; Win64; x64) AppleWebKit/537.36 (KHTML, like Gecko) Chrome/112.0.0.0 Safari/537.36 Edg/112.0.1722.64" etag="w9DvLSdu6nDnp81BoES0" version="21.3.2" type="device">
  <diagram name="PÃ¡gina-1" id="hjZ8kDsftlXS3FvDK41p">
    <mxGraphModel dx="1372" dy="807" grid="1" gridSize="10" guides="1" tooltips="1" connect="1" arrows="1" fold="1" page="1" pageScale="1" pageWidth="827" pageHeight="1169" math="0" shadow="0">
      <root>
        <mxCell id="0" />
        <mxCell id="1" parent="0" />
        <mxCell id="j0kDFuISmVZxj9dIa2uU-1" value="USUARIO" style="ellipse;html=1;shape=startState;fillColor=#000000;strokeColor=#ff0000;labelPosition=center;verticalLabelPosition=top;align=center;verticalAlign=bottom;fontSize=15;" vertex="1" parent="1">
          <mxGeometry x="50" y="136" width="30" height="30" as="geometry" />
        </mxCell>
        <mxCell id="j0kDFuISmVZxj9dIa2uU-2" value="" style="edgeStyle=orthogonalEdgeStyle;html=1;verticalAlign=bottom;endArrow=open;endSize=8;strokeColor=#ff0000;rounded=0;" edge="1" source="j0kDFuISmVZxj9dIa2uU-1" parent="1">
          <mxGeometry relative="1" as="geometry">
            <mxPoint x="65" y="820" as="targetPoint" />
          </mxGeometry>
        </mxCell>
        <mxCell id="j0kDFuISmVZxj9dIa2uU-4" value="APP Web/&lt;br style=&quot;font-size: 16px;&quot;&gt;Movil" style="html=1;points=[];perimeter=orthogonalPerimeter;outlineConnect=0;targetShapes=umlLifeline;portConstraint=eastwest;newEdgeStyle={&quot;edgeStyle&quot;:&quot;elbowEdgeStyle&quot;,&quot;elbow&quot;:&quot;vertical&quot;,&quot;curved&quot;:0,&quot;rounded&quot;:0};labelPosition=center;verticalLabelPosition=top;align=center;verticalAlign=bottom;fontSize=16;" vertex="1" parent="1">
          <mxGeometry x="195" y="138" width="10" height="652" as="geometry" />
        </mxCell>
        <mxCell id="j0kDFuISmVZxj9dIa2uU-5" value="REQUEST" style="html=1;verticalAlign=bottom;startArrow=oval;endArrow=block;startSize=8;edgeStyle=elbowEdgeStyle;elbow=vertical;curved=0;rounded=0;fontSize=15;" edge="1" parent="1">
          <mxGeometry relative="1" as="geometry">
            <mxPoint x="66" y="180" as="sourcePoint" />
            <mxPoint x="201" y="179.9999999999999" as="targetPoint" />
          </mxGeometry>
        </mxCell>
        <mxCell id="j0kDFuISmVZxj9dIa2uU-6" value="SERVER &lt;br style=&quot;font-size: 15px;&quot;&gt;AUTORIZATION" style="html=1;points=[];perimeter=orthogonalPerimeter;outlineConnect=0;targetShapes=umlLifeline;portConstraint=eastwest;newEdgeStyle={&quot;edgeStyle&quot;:&quot;elbowEdgeStyle&quot;,&quot;elbow&quot;:&quot;vertical&quot;,&quot;curved&quot;:0,&quot;rounded&quot;:0};labelPosition=center;verticalLabelPosition=top;align=center;verticalAlign=bottom;fontSize=15;" vertex="1" parent="1">
          <mxGeometry x="409" y="140" width="10" height="660" as="geometry" />
        </mxCell>
        <mxCell id="j0kDFuISmVZxj9dIa2uU-7" value="dispatch" style="html=1;verticalAlign=bottom;endArrow=block;edgeStyle=elbowEdgeStyle;elbow=vertical;curved=0;rounded=0;fontSize=19;" edge="1" target="j0kDFuISmVZxj9dIa2uU-6" parent="1">
          <mxGeometry relative="1" as="geometry">
            <mxPoint x="255" y="210" as="sourcePoint" />
            <Array as="points">
              <mxPoint x="210" y="210" />
            </Array>
          </mxGeometry>
        </mxCell>
        <mxCell id="j0kDFuISmVZxj9dIa2uU-8" value="Response&lt;br&gt;Code Autorization" style="html=1;verticalAlign=bottom;endArrow=open;dashed=1;endSize=8;edgeStyle=elbowEdgeStyle;elbow=vertical;curved=0;rounded=0;fontSize=19;entryX=1.5;entryY=0.81;entryDx=0;entryDy=0;entryPerimeter=0;" edge="1" parent="1">
          <mxGeometry x="0.0116" relative="1" as="geometry">
            <mxPoint x="210" y="432.6200000000001" as="targetPoint" />
            <mxPoint x="409" y="432" as="sourcePoint" />
            <mxPoint as="offset" />
          </mxGeometry>
        </mxCell>
        <mxCell id="j0kDFuISmVZxj9dIa2uU-9" value="C1&amp;nbsp; &lt;br&gt;DATABASE" style="html=1;points=[];perimeter=orthogonalPerimeter;outlineConnect=0;targetShapes=umlLifeline;portConstraint=eastwest;newEdgeStyle={&quot;edgeStyle&quot;:&quot;elbowEdgeStyle&quot;,&quot;elbow&quot;:&quot;vertical&quot;,&quot;curved&quot;:0,&quot;rounded&quot;:0};labelPosition=center;verticalLabelPosition=top;align=center;verticalAlign=bottom;fontSize=18;" vertex="1" parent="1">
          <mxGeometry x="600" y="140" width="10" height="660" as="geometry" />
        </mxCell>
        <mxCell id="j0kDFuISmVZxj9dIa2uU-10" value="Query Check&lt;br style=&quot;font-size: 18px;&quot;&gt;Data Request" style="html=1;verticalAlign=bottom;endArrow=block;edgeStyle=elbowEdgeStyle;elbow=vertical;curved=0;rounded=0;fontSize=18;" edge="1" parent="1">
          <mxGeometry relative="1" as="geometry">
            <mxPoint x="419" y="316" as="sourcePoint" />
            <mxPoint x="600.0000000000002" y="315.66666666666674" as="targetPoint" />
          </mxGeometry>
        </mxCell>
        <mxCell id="j0kDFuISmVZxj9dIa2uU-11" value="Response Data" style="html=1;verticalAlign=bottom;endArrow=open;dashed=1;endSize=8;edgeStyle=elbowEdgeStyle;elbow=vertical;curved=0;rounded=0;fontSize=18;" edge="1" parent="1">
          <mxGeometry relative="1" as="geometry">
            <mxPoint x="419" y="388" as="targetPoint" />
            <mxPoint x="600.0000000000002" y="388" as="sourcePoint" />
            <Array as="points">
              <mxPoint x="560" y="388" />
            </Array>
          </mxGeometry>
        </mxCell>
        <mxCell id="j0kDFuISmVZxj9dIa2uU-16" value="" style="endArrow=block;startArrow=block;endFill=1;startFill=1;html=1;rounded=0;dashed=1;dashPattern=8 8;fontSize=17;" edge="1" parent="1" target="j0kDFuISmVZxj9dIa2uU-6">
          <mxGeometry width="160" relative="1" as="geometry">
            <mxPoint x="60" y="270" as="sourcePoint" />
            <mxPoint x="220" y="270" as="targetPoint" />
          </mxGeometry>
        </mxCell>
        <mxCell id="j0kDFuISmVZxj9dIa2uU-17" value="&lt;font style=&quot;font-size: 16px;&quot;&gt;Confirm Autorization&lt;br&gt;ACCESS&lt;/font&gt;" style="edgeLabel;html=1;align=center;verticalAlign=middle;resizable=0;points=[];" vertex="1" connectable="0" parent="j0kDFuISmVZxj9dIa2uU-16">
          <mxGeometry x="0.1314" y="-3" relative="1" as="geometry">
            <mxPoint y="1" as="offset" />
          </mxGeometry>
        </mxCell>
        <mxCell id="j0kDFuISmVZxj9dIa2uU-18" value="TOKEN ACCESS /&lt;br style=&quot;font-size: 16px;&quot;&gt;TOKEN AUTORZATION" style="endArrow=block;startArrow=block;endFill=1;startFill=1;html=1;rounded=0;dashed=1;dashPattern=8 8;strokeWidth=2;fontSize=16;" edge="1" parent="1" target="j0kDFuISmVZxj9dIa2uU-6">
          <mxGeometry width="160" relative="1" as="geometry">
            <mxPoint x="200" y="520" as="sourcePoint" />
            <mxPoint x="360" y="520" as="targetPoint" />
          </mxGeometry>
        </mxCell>
        <mxCell id="j0kDFuISmVZxj9dIa2uU-19" value="C3&amp;nbsp; &lt;br&gt;REPOSITORIO / &lt;br&gt;Other resources API" style="html=1;points=[];perimeter=orthogonalPerimeter;outlineConnect=0;targetShapes=umlLifeline;portConstraint=eastwest;newEdgeStyle={&quot;edgeStyle&quot;:&quot;elbowEdgeStyle&quot;,&quot;elbow&quot;:&quot;vertical&quot;,&quot;curved&quot;:0,&quot;rounded&quot;:0};labelPosition=center;verticalLabelPosition=top;align=center;verticalAlign=bottom;fontSize=18;" vertex="1" parent="1">
          <mxGeometry x="750" y="136" width="10" height="664" as="geometry" />
        </mxCell>
        <mxCell id="j0kDFuISmVZxj9dIa2uU-21" value="TOKEN dispatch&amp;nbsp;&lt;br style=&quot;font-size: 16px;&quot;&gt;Request" style="html=1;verticalAlign=top;startArrow=oval;startFill=1;endArrow=block;startSize=8;edgeStyle=elbowEdgeStyle;elbow=vertical;curved=0;rounded=0;entryX=0;entryY=0.707;entryDx=0;entryDy=0;entryPerimeter=0;labelPosition=center;verticalLabelPosition=bottom;align=center;fontSize=16;" edge="1" parent="1">
          <mxGeometry width="60" relative="1" as="geometry">
            <mxPoint x="210" y="583" as="sourcePoint" />
            <mxPoint x="600.0000000000002" y="563.06" as="targetPoint" />
          </mxGeometry>
        </mxCell>
        <mxCell id="j0kDFuISmVZxj9dIa2uU-22" value="TOKEN dispatch /&amp;nbsp;&lt;br style=&quot;font-size: 16px;&quot;&gt;Request" style="html=1;verticalAlign=top;startArrow=oval;startFill=1;endArrow=block;startSize=8;edgeStyle=elbowEdgeStyle;elbow=vertical;curved=0;rounded=0;entryX=0;entryY=0.869;entryDx=0;entryDy=0;entryPerimeter=0;labelPosition=center;verticalLabelPosition=bottom;align=center;fontSize=16;" edge="1" parent="1">
          <mxGeometry width="60" relative="1" as="geometry">
            <mxPoint x="210" y="685" as="sourcePoint" />
            <mxPoint x="750" y="685.02" as="targetPoint" />
            <Array as="points">
              <mxPoint x="480" y="685" />
            </Array>
          </mxGeometry>
        </mxCell>
        <mxCell id="j0kDFuISmVZxj9dIa2uU-23" value="&lt;font style=&quot;font-size: 18px;&quot;&gt;return&lt;/font&gt;" style="html=1;verticalAlign=top;endArrow=open;dashed=1;endSize=8;edgeStyle=elbowEdgeStyle;elbow=vertical;curved=0;rounded=0;labelPosition=center;verticalLabelPosition=bottom;align=center;" edge="1" parent="1">
          <mxGeometry relative="1" as="geometry">
            <mxPoint x="600" y="640" as="sourcePoint" />
            <mxPoint x="210" y="640" as="targetPoint" />
          </mxGeometry>
        </mxCell>
        <mxCell id="j0kDFuISmVZxj9dIa2uU-24" value="&lt;font style=&quot;font-size: 18px;&quot;&gt;return&lt;/font&gt;" style="html=1;verticalAlign=top;endArrow=open;dashed=1;endSize=8;edgeStyle=elbowEdgeStyle;elbow=vertical;curved=0;rounded=0;exitX=0;exitY=0.925;exitDx=0;exitDy=0;exitPerimeter=0;labelPosition=center;verticalLabelPosition=bottom;align=center;" edge="1" parent="1" source="j0kDFuISmVZxj9dIa2uU-19">
          <mxGeometry relative="1" as="geometry">
            <mxPoint x="595" y="750.33" as="sourcePoint" />
            <mxPoint x="205" y="750.33" as="targetPoint" />
          </mxGeometry>
        </mxCell>
      </root>
    </mxGraphModel>
  </diagram>
</mxfile>
